<?xml version="1.0" encoding="UTF-8"?>
<svg xmlns="http://www.w3.org/2000/svg" version="1.1" xmlns:v="https://vecta.io/nano" viewBox="0 0 555 171.6">
  <defs>
    <style>
      .cls-1 {
        fill: #0668b2;
      }

      .cls-2 {
        fill: #fbdf00;
      }

      .cls-3 {
        fill: #3b68ab;
      }
    </style>
  </defs>
  <!-- Generator: Adobe Illustrator 28.7.1, SVG Export Plug-In . SVG Version: 1.2.0 Build 142)  -->
  <g>
    <g id="Layer_1">
      <g>
        <g>
          <polygon class="cls-1" points="315.1 42.4 320.5 42.4 320.5 58.7 340.9 58.7 340.9 42.4 346.3 42.4 346.3 82 340.9 82 340.9 63.5 320.5 63.5 320.5 82 315.1 82 315.1 42.4"/>
          <polygon class="cls-1" points="358.7 42.4 387.4 42.4 387.4 47.2 363.9 47.2 363.9 59.3 385.6 59.3 385.6 63.8 363.9 63.8 363.9 77.3 387.8 77.3 387.8 82 358.7 82 358.7 42.4"/>
          <path class="cls-1" d="M409.8,42.4h6l14.4,39.6h-5.9l-4.1-11.9h-15.5l-4.3,11.9h-5.5l14.9-39.6ZM418.7,65.8l-6.1-17.5-6.3,17.5h12.4Z"/>
          <polygon class="cls-1" points="438.4 42.4 443.8 42.4 443.8 77.3 463.6 77.3 463.6 82 438.4 82 438.4 42.4"/>
          <polygon class="cls-1" points="497.1 42.4 497.1 47.1 483.8 47.1 483.8 82 478.4 82 478.4 47.1 465 47.1 465 42.4 497.1 42.4"/>
          <polygon class="cls-1" points="505.5 42.4 510.9 42.4 510.9 58.7 531.3 58.7 531.3 42.4 536.7 42.4 536.7 82 531.3 82 531.3 63.5 510.9 63.5 510.9 82 505.5 82 505.5 42.4"/>
          <rect class="cls-3" x="315.1" y="101.1" width="3.5" height="25.5"/>
          <polygon class="cls-1" points="326.4 101.1 330.5 101.1 343.2 121.8 343.2 101.1 346.5 101.1 346.5 126.7 342.6 126.7 329.7 106 329.7 126.7 326.4 126.7 326.4 101.1"/>
          <path class="cls-1" d="M356.5,118.4c0,1.4.4,2.6,1,3.5,1.1,1.7,3.1,2.5,5.8,2.5s2.4-.2,3.4-.5c2-.7,3-2,3-3.9s-.4-2.4-1.3-3c-.9-.6-2.2-1.1-4-1.5l-3.3-.8c-2.2-.5-3.7-1.1-4.6-1.7-1.6-1.1-2.4-2.7-2.4-4.8s.8-4.2,2.3-5.7c1.6-1.5,3.7-2.2,6.6-2.2s4.8.6,6.6,1.9c1.8,1.3,2.7,3.3,2.7,6.2h-3.3c-.2-1.4-.5-2.4-1.1-3.1-1-1.3-2.7-2-5.2-2s-3.4.4-4.2,1.3c-.9.8-1.3,1.9-1.3,3s.5,2.2,1.5,2.8c.7.4,2.2.8,4.5,1.4l3.5.8c1.7.4,3,.9,3.9,1.6,1.6,1.2,2.4,2.9,2.4,5.2s-1,4.9-3,6.1c-2,1.2-4.3,1.8-7,1.8s-5.5-.8-7.3-2.4c-1.8-1.6-2.6-3.8-2.6-6.6h3.3Z"/>
          <path class="cls-1" d="M383.9,101.1v15.8c0,1.9.4,3.4,1.1,4.6,1,1.9,2.8,2.8,5.3,2.8s5-1,6-3c.6-1.1.9-2.6.9-4.4v-15.8h3.5v14.3c0,3.1-.4,5.6-1.3,7.3-1.6,3.1-4.5,4.6-8.8,4.6s-7.3-1.5-8.8-4.6c-.9-1.7-1.3-4.1-1.3-7.3v-14.3h3.5Z"/>
          <path class="cls-1" d="M408.4,101.1h11.6c1.9,0,3.5.3,4.7.8,2.4,1.1,3.5,3.1,3.5,6s-.3,2.8-1,3.8c-.6,1-1.5,1.8-2.7,2.3,1,.4,1.7.9,2.3,1.6.5.7.8,1.7.8,3.2v3.4c.2,1,.2,1.7.4,2.2.2.8.6,1.3,1.1,1.6v.6h-4.2c-.1-.2-.2-.5-.3-.9,0-.4-.1-1-.2-2l-.2-4.3c0-1.7-.7-2.8-1.8-3.4-.6-.3-1.7-.5-3-.5h-7.7v11h-3.5v-25.5ZM419.7,112.8c1.6,0,2.8-.3,3.7-1,.9-.7,1.4-1.8,1.4-3.5s-.6-3.1-1.9-3.7c-.7-.4-1.6-.5-2.8-.5h-8.2v8.7h7.8Z"/>
          <path class="cls-1" d="M443.4,101.1h3.9l9.3,25.5h-3.8l-2.7-7.7h-10l-2.8,7.7h-3.6l9.6-25.5ZM449.1,116.2l-3.9-11.3-4.1,11.3h8Z"/>
          <polygon class="cls-1" points="461.8 101.1 465.9 101.1 478.6 121.8 478.6 101.1 481.9 101.1 481.9 126.7 478 126.7 465.1 106 465.1 126.7 461.8 126.7 461.8 101.1"/>
          <path class="cls-1" d="M507.8,103c1.8,1.7,2.7,3.6,2.9,5.8h-3.4c-.4-1.7-1.1-3-2.2-3.9-1.1-1-2.7-1.4-4.7-1.4s-4.5.9-6,2.7c-1.5,1.8-2.3,4.5-2.3,8.1s.7,5.4,2.1,7.3c1.4,1.9,3.4,2.8,6.1,2.8s4.4-1,5.7-2.9c.7-1,1.2-2.4,1.6-4.1h3.4c-.3,2.7-1.3,5-3,6.8-2,2.2-4.7,3.3-8.1,3.3s-5.4-.9-7.4-2.7c-2.6-2.4-3.9-6.1-3.9-11s1-6.8,3-9.3c2.1-2.6,5.1-3.9,8.8-3.9s5.7.8,7.5,2.6"/>
          <polygon class="cls-1" points="517.9 101.1 536.4 101.1 536.4 104.2 521.2 104.2 521.2 112 535.3 112 535.3 115 521.2 115 521.2 123.6 536.7 123.6 536.7 126.7 517.9 126.7 517.9 101.1"/>
          <rect class="cls-2" x="3.2" y="8" width="300.9" height="154.5"/>
          <path class="cls-1" d="M87.2,62.7c-1.4-.5-2.9-.9-4.7-1.4-1.7-.5-3.7-.9-5.8-1.3-2.2-.4-4.6-.5-7.1-.5-3.1,0-6.3.5-9.3,1.4-3.1.9-5.9,2.3-8.7,4.1-2.7,1.9-5.1,4.2-7.2,7-2.1,2.8-3.7,6.1-4.9,9.9-1.2,3.8-1.8,8.1-1.8,12.9,0,5.1.7,9.5,2.1,13.2,1.4,3.8,3.2,6.9,5.5,9.5,2.3,2.6,4.8,4.7,7.6,6.2,2.8,1.6,5.6,2.7,8.5,3.4,2.9.7,5.6,1,8.3,1,2.7,0,5.3-.2,7.5-.5,2.3-.4,4.4-.8,6.3-1.3,1.9-.5,3.5-1,5-1.5v-7.4c-1.4.6-2.9,1.2-4.6,1.9-1.7.6-3.7,1.2-5.9,1.6-2.2.4-4.6.7-7.3.7-4.6,0-8.4-.8-11.7-2.4-3.2-1.5-5.9-3.6-7.9-6.2-2-2.6-3.5-5.6-4.5-8.8-1-3.3-1.4-6.6-1.4-10.1s.5-6.8,1.5-10.2c1-3.3,2.5-6.3,4.5-8.9,2-2.7,4.6-4.8,7.7-6.4,3.1-1.6,6.8-2.4,11-2.5,2.5,0,4.8.2,6.8.7,2,.4,3.9,1,5.7,1.7,1.7.7,3.4,1.3,4.9,2.1v-7.8Z"/>
          <path class="cls-1" d="M152.9,115.4c-.5.4-1.2,1-2,1.6-.8.7-1.7,1.3-2.7,2-1,.6-1.9,1.2-2.8,1.7-.9.5-1.5.7-2.1.7-.4,0-.8-.1-.9-.2-.2-.2-.3-.3-.4-.5,0-.2,0-.6-.1-1.3,0-.7,0-1.5,0-2.3v-36.1c0-2.5,0-4.7-.2-6.4-.2-1.8-.5-3.4-1.1-4.8-.6-1.4-1.5-2.8-2.8-4.2-1.3-1.4-2.9-2.6-4.8-3.4-1.9-.9-3.9-1.5-5.9-1.9-2.1-.4-4-.6-5.9-.6-2.5,0-4.8.3-6.9.8-2.1.5-4.1,1.1-5.9,1.9-1.8.8-3.4,1.5-4.8,2.3-1.4.8-2.6,1.5-3.6,2.1v7.2c2.4-1.7,4.6-3.1,6.7-4.3,2.1-1.2,4.2-2.1,6.4-2.7,2.2-.6,4.6-.9,7.2-.9,3.6,0,6.5.6,8.7,1.7,2.1,1.1,3.7,2.7,4.6,4.6.9,2,1.3,4.2,1.3,6.8v8.4c-1.5,0-3.6.2-6,.4-2.4.3-5.1.7-8,1.3-2.9.6-5.8,1.4-8.7,2.5-2.9,1.1-5.5,2.5-7.9,4.3-2.4,1.8-4.3,3.9-5.8,6.5-1.5,2.6-2.2,5.7-2.2,9.3,0,2.4.5,4.6,1.4,6.6,1,2,2.2,3.8,3.9,5.3,1.6,1.5,3.5,2.7,5.7,3.5,2.1.8,4.4,1.2,6.9,1.3,2.6,0,4.9-.3,7-.9,2.2-.6,4.1-1.3,5.9-2.2,1.7-.9,3.3-1.8,4.6-2.7,1.3-.9,2.4-1.7,3.2-2.4.1,1.7.3,3.1.5,4.4.2,1.2.7,2.2,1.3,2.8.6.7,1.6,1,3,1,1.5,0,3.3-.6,5.4-1.8,2.1-1.2,4.8-2.9,7.8-5.1v-5.9ZM134.8,113.7c-1,.9-2.1,1.8-3.3,2.9-1.3,1-2.7,1.9-4.2,2.8-1.5.9-3.2,1.6-5,2.2-1.8.6-3.8.8-5.9.8-1.3,0-2.7-.2-4.2-.6-1.5-.4-2.9-1-4.3-1.9-1.3-.9-2.4-2-3.3-3.4-.9-1.4-1.3-3.1-1.3-5,0-2,.4-3.8,1.2-5.4.8-1.6,1.8-3.1,3.1-4.4,1.3-1.3,2.7-2.5,4.3-3.4,1.6-1,3.2-1.8,4.9-2.5,2.1-.8,4.3-1.4,6.5-1.8,2.3-.4,4.4-.6,6.4-.8,2-.1,3.8-.2,5.2-.2v20.7Z"/>
          <path class="cls-1" d="M208.3,67.2c-.9-.8-1.8-1.6-2.9-2.4-1.1-.9-2.3-1.7-3.6-2.6-1.3-.8-2.7-1.5-4.1-2-1.4-.5-2.9-.8-4.5-.8-2.2,0-4.4.5-6.4,1.5-2.1,1-4,2.3-5.8,3.8-1.8,1.5-3.5,3.2-5,4.9-1.5,1.7-2.8,3.3-3.9,4.8-1,1.5-1.9,2.7-2.4,3.6v-17.4h-7.1v66.1h7.1v-41.5c1.4-2.4,3-4.7,4.7-6.9,1.7-2.2,3.4-4.2,5.3-6,1.9-1.8,3.7-3.2,5.6-4.2,1.9-1,3.8-1.6,5.8-1.6,1.6,0,3.2.4,4.8,1.2,1.6.8,3.1,1.7,4.5,2.8,1.4,1.1,2.7,2.2,3.8,3.2l4.1-6.6Z"/>
          <path class="cls-1" d="M269.5,91.2c0-2.3-.2-4.7-.6-7.1-.3-2.4-1.1-4.9-2.2-7.5-.8-2-2-4-3.5-6-1.5-2-3.3-3.9-5.5-5.6-2.2-1.7-4.7-3-7.6-4.1-2.9-1-6.2-1.5-9.9-1.6-4.8,0-9,.9-12.8,2.8-3.7,1.8-6.9,4.3-9.5,7.4-2.6,3.2-4.6,6.7-6,10.7-1.4,4-2.1,8.2-2.1,12.6s.4,7,1.4,10.4c.9,3.4,2.2,6.6,4,9.6,1.8,3,4,5.6,6.6,7.9,2.7,2.3,5.7,4.1,9.2,5.3,3.5,1.3,7.4,1.9,11.7,2,3.7,0,7-.4,10.1-1.2,3.1-.8,5.9-1.9,8.4-3.2,2.5-1.3,4.9-2.8,6.9-4.4v-7.9c-1,.9-2.3,1.9-3.7,3-1.5,1.1-3.3,2.3-5.3,3.3-2.1,1.1-4.4,2-7,2.7-2.6.7-5.5,1.1-8.6,1.1-2.6,0-5.1-.4-7.6-1.1-2.5-.8-4.9-1.9-7.2-3.5-2.2-1.6-4.2-3.5-6-5.9-1.7-2.4-3-5.2-3.9-8.5-.9-3.3-1.3-7-1.2-11.2h51.8ZM218.4,85.6c.6-3.4,1.7-6.4,3.2-8.9,1.5-2.5,3.3-4.6,5.3-6.2,2-1.6,4.2-2.8,6.5-3.6,2.3-.8,4.5-1.2,6.8-1.2,3.7,0,7,.9,10,2.5,2.9,1.7,5.3,3.9,7,6.7,1.3,2.1,2.2,4,2.7,5.7.6,1.8,1,3.4,1.2,4.9h-42.7Z"/>
          <rect class="cls-1" x="209.9" y="42.4" width="59.6" height="6.8"/>
        </g>
        <path class="cls-1" d="M552.2,30.8c0,3.5-2.8,6.3-6.4,6.3s-6.4-2.8-6.4-6.3,2.8-6.2,6.5-6.2,6.3,2.7,6.3,6.2ZM541,30.8c0,2.8,2.1,5,4.9,5,2.7,0,4.7-2.2,4.7-4.9s-2.1-5-4.8-5-4.8,2.2-4.8,5ZM544.8,34.1h-1.4v-6.2c.6,0,1.4-.2,2.4-.2s1.7.2,2.1.5c.4.3.6.7.6,1.3s-.6,1.3-1.3,1.5h0c.6.3.9.8,1.1,1.6.2.9.3,1.3.5,1.5h-1.5c-.2-.2-.3-.8-.5-1.5-.1-.6-.5-.9-1.3-.9h-.7v2.5ZM544.9,30.6h.7c.8,0,1.4-.3,1.4-.9s-.4-.9-1.3-.9-.6,0-.8,0v1.8Z"/>
      </g>
    </g>
  </g>
</svg>